<svg width="109" height="50" viewBox="0 0 109 50" fill="none" xmlns="http://www.w3.org/2000/svg">
<path d="M35.396 36.6646C34.668 36.6646 34.01 36.5012 33.422 36.1746C32.834 35.8386 32.372 35.3719 32.036 34.7746C31.7 34.1679 31.532 33.4679 31.532 32.6746C31.532 31.8906 31.7047 31.1952 32.05 30.5886C32.3953 29.9819 32.8667 29.5152 33.464 29.1886C34.0613 28.8619 34.7287 28.6986 35.466 28.6986C36.2033 28.6986 36.8707 28.8619 37.468 29.1886C38.0653 29.5152 38.5367 29.9819 38.882 30.5886C39.2273 31.1952 39.4 31.8906 39.4 32.6746C39.4 33.4586 39.2227 34.1539 38.868 34.7606C38.5133 35.3672 38.028 35.8386 37.412 36.1746C36.8053 36.5012 36.1333 36.6646 35.396 36.6646ZM35.396 35.2786C35.8067 35.2786 36.1893 35.1806 36.544 34.9846C36.908 34.7886 37.202 34.4946 37.426 34.1026C37.65 33.7106 37.762 33.2346 37.762 32.6746C37.762 32.1146 37.6547 31.6432 37.44 31.2606C37.2253 30.8686 36.9407 30.5746 36.586 30.3786C36.2313 30.1826 35.8487 30.0846 35.438 30.0846C35.0273 30.0846 34.6447 30.1826 34.29 30.3786C33.9447 30.5746 33.6693 30.8686 33.464 31.2606C33.2587 31.6432 33.156 32.1146 33.156 32.6746C33.156 33.5052 33.366 34.1492 33.786 34.6066C34.2153 35.0546 34.752 35.2786 35.396 35.2786ZM42.8397 30.1266V34.3966C42.8397 34.6859 42.9051 34.8959 43.0357 35.0266C43.1757 35.1479 43.4091 35.2086 43.7357 35.2086H44.7157V36.5386H43.4557C42.7371 36.5386 42.1864 36.3706 41.8037 36.0346C41.4211 35.6986 41.2297 35.1526 41.2297 34.3966V30.1266H40.3197V28.8246H41.2297V26.9066H42.8397V28.8246H44.7157V30.1266H42.8397ZM53.2567 32.4926C53.2567 32.7819 53.2381 33.0432 53.2007 33.2766H47.3067C47.3534 33.8926 47.5821 34.3872 47.9927 34.7606C48.4034 35.1339 48.9074 35.3206 49.5047 35.3206C50.3634 35.3206 50.9701 34.9612 51.3247 34.2426H53.0467C52.8134 34.9519 52.3887 35.5352 51.7727 35.9926C51.1661 36.4406 50.4101 36.6646 49.5047 36.6646C48.7674 36.6646 48.1047 36.5012 47.5167 36.1746C46.9381 35.8386 46.4807 35.3719 46.1447 34.7746C45.8181 34.1679 45.6547 33.4679 45.6547 32.6746C45.6547 31.8812 45.8134 31.1859 46.1307 30.5886C46.4574 29.9819 46.9101 29.5152 47.4887 29.1886C48.0767 28.8619 48.7487 28.6986 49.5047 28.6986C50.2327 28.6986 50.8814 28.8572 51.4507 29.1746C52.0201 29.4919 52.4634 29.9399 52.7807 30.5186C53.0981 31.0879 53.2567 31.7459 53.2567 32.4926ZM51.5907 31.9886C51.5814 31.4006 51.3714 30.9292 50.9607 30.5746C50.5501 30.2199 50.0414 30.0426 49.4347 30.0426C48.8841 30.0426 48.4127 30.2199 48.0207 30.5746C47.6287 30.9199 47.3954 31.3912 47.3207 31.9886H51.5907ZM56.4233 26.1786V36.5386H54.8273V26.1786H56.4233ZM61.5708 32.6886L65.1268 36.5386H62.9708L60.1148 33.2206V36.5386H58.5188V26.1786H60.1148V32.1986L62.9148 28.8246H65.1268L61.5708 32.6886ZM73.2567 28.8246V36.5386H71.6607V35.6286C71.4087 35.9459 71.0774 36.1979 70.6667 36.3846C70.2654 36.5619 69.836 36.6506 69.3787 36.6506C68.772 36.6506 68.226 36.5246 67.7407 36.2726C67.2647 36.0206 66.8867 35.6472 66.6067 35.1526C66.336 34.6579 66.2007 34.0606 66.2007 33.3606V28.8246H67.7827V33.1226C67.7827 33.8132 67.9554 34.3452 68.3007 34.7186C68.646 35.0826 69.1174 35.2646 69.7147 35.2646C70.312 35.2646 70.7834 35.0826 71.1287 34.7186C71.4834 34.3452 71.6607 33.8132 71.6607 33.1226V28.8246H73.2567ZM78.1625 36.6646C77.5558 36.6646 77.0098 36.5572 76.5245 36.3426C76.0485 36.1186 75.6705 35.8199 75.3905 35.4466C75.1105 35.0639 74.9612 34.6392 74.9425 34.1726H76.5945C76.6225 34.4992 76.7765 34.7746 77.0565 34.9986C77.3458 35.2132 77.7052 35.3206 78.1345 35.3206C78.5825 35.3206 78.9278 35.2366 79.1705 35.0686C79.4225 34.8912 79.5485 34.6672 79.5485 34.3966C79.5485 34.1072 79.4085 33.8926 79.1285 33.7526C78.8578 33.6126 78.4238 33.4586 77.8265 33.2906C77.2478 33.1319 76.7765 32.9779 76.4125 32.8286C76.0485 32.6792 75.7312 32.4506 75.4605 32.1426C75.1992 31.8346 75.0685 31.4286 75.0685 30.9246C75.0685 30.5139 75.1898 30.1406 75.4325 29.8046C75.6752 29.4592 76.0205 29.1886 76.4685 28.9926C76.9258 28.7966 77.4485 28.6986 78.0365 28.6986C78.9138 28.6986 79.6185 28.9226 80.1505 29.3706C80.6918 29.8092 80.9812 30.4112 81.0185 31.1766H79.4225C79.3945 30.8312 79.2545 30.5559 79.0025 30.3506C78.7505 30.1452 78.4098 30.0426 77.9805 30.0426C77.5605 30.0426 77.2385 30.1219 77.0145 30.2806C76.7905 30.4392 76.6785 30.6492 76.6785 30.9106C76.6785 31.1159 76.7532 31.2886 76.9025 31.4286C77.0518 31.5686 77.2338 31.6806 77.4485 31.7646C77.6632 31.8392 77.9805 31.9372 78.4005 32.0586C78.9605 32.2079 79.4178 32.3619 79.7725 32.5206C80.1365 32.6699 80.4492 32.8939 80.7105 33.1926C80.9718 33.4912 81.1072 33.8879 81.1165 34.3826C81.1165 34.8212 80.9952 35.2132 80.7525 35.5586C80.5098 35.9039 80.1645 36.1746 79.7165 36.3706C79.2778 36.5666 78.7598 36.6646 78.1625 36.6646ZM89.827 28.8246V36.5386H88.231V35.6286C87.979 35.9459 87.6477 36.1979 87.237 36.3846C86.8357 36.5619 86.4063 36.6506 85.949 36.6506C85.3423 36.6506 84.7963 36.5246 84.311 36.2726C83.835 36.0206 83.457 35.6472 83.177 35.1526C82.9063 34.6579 82.771 34.0606 82.771 33.3606V28.8246H84.353V33.1226C84.353 33.8132 84.5257 34.3452 84.871 34.7186C85.2163 35.0826 85.6877 35.2646 86.285 35.2646C86.8823 35.2646 87.3537 35.0826 87.699 34.7186C88.0537 34.3452 88.231 33.8132 88.231 33.1226V28.8246H89.827ZM94.9848 32.6886L98.5408 36.5386H96.3848L93.5288 33.2206V36.5386H91.9328V26.1786H93.5288V32.1986L96.3288 28.8246H98.5408L94.9848 32.6886ZM99.1528 32.6466C99.1528 31.8719 99.3114 31.1859 99.6288 30.5886C99.9554 29.9912 100.394 29.5292 100.945 29.2026C101.505 28.8666 102.121 28.6986 102.793 28.6986C103.399 28.6986 103.927 28.8199 104.375 29.0626C104.832 29.2959 105.196 29.5899 105.467 29.9446V28.8246H107.077V36.5386H105.467V35.3906C105.196 35.7546 104.827 36.0579 104.361 36.3006C103.894 36.5432 103.362 36.6646 102.765 36.6646C102.102 36.6646 101.495 36.4966 100.945 36.1606C100.394 35.8152 99.9554 35.3392 99.6288 34.7326C99.3114 34.1166 99.1528 33.4212 99.1528 32.6466ZM105.467 32.6746C105.467 32.1426 105.355 31.6806 105.131 31.2886C104.916 30.8966 104.631 30.5979 104.277 30.3926C103.922 30.1872 103.539 30.0846 103.129 30.0846C102.718 30.0846 102.335 30.1872 101.981 30.3926C101.626 30.5886 101.337 30.8826 101.113 31.2746C100.898 31.6572 100.791 32.1146 100.791 32.6466C100.791 33.1786 100.898 33.6452 101.113 34.0466C101.337 34.4479 101.626 34.7559 101.981 34.9706C102.345 35.1759 102.727 35.2786 103.129 35.2786C103.539 35.2786 103.922 35.1759 104.277 34.9706C104.631 34.7652 104.916 34.4666 105.131 34.0746C105.355 33.6732 105.467 33.2066 105.467 32.6746Z" fill="#383838"/>
<path d="M28.6106 13.564V37H22.9018V22.9451L17.6605 37H13.0534L7.77862 22.9117V37H2.06985V13.564H8.81354L15.3903 29.7889L21.9003 13.564H28.6106Z" fill="#42A66A"/>
</svg>
